<?xml version="1.0" standalone="no"?>
<!DOCTYPE svg PUBLIC "-//W3C//DTD SVG 1.1//EN" "http://www.w3.org/Graphics/SVG/1.1/DTD/svg11.dtd" >
<svg xmlns="http://www.w3.org/2000/svg" xmlns:xlink="http://www.w3.org/1999/xlink" version="1.1">
<metadata></metadata>
<defs>
<font id="el_messiriregular" horiz-adv-x="1085" >
<font-face units-per-em="2048" ascent="1638" descent="-410" />
<missing-glyph horiz-adv-x="512" />
<glyph horiz-adv-x="0" />
<glyph unicode="&#xd;" horiz-adv-x="512" />
<glyph unicode=" "  horiz-adv-x="512" />
<glyph unicode="&#x09;" horiz-adv-x="512" />
<glyph unicode="&#xa0;" horiz-adv-x="512" />
<glyph unicode="!" horiz-adv-x="479" d="M129 84q0 45 33 77t78 32t77.5 -32t32.5 -77q0 -47 -32.5 -80t-77.5 -33t-78 33t-33 80zM143 1352h193l-37 -1035h-119z" />
<glyph unicode="&#x22;" horiz-adv-x="749" d="M109 1352h204l-61 -553h-82zM436 1352h205l-61 -553h-82z" />
<glyph unicode="#" horiz-adv-x="1368" d="M63 358v123h295l74 369h-246v123h273l86 409h133l-86 -409h297l86 409h133l-86 -409h281v-123h-308l-75 -369h260v-123h-287l-72 -358h-133l72 358h-297l-72 -358h-133l72 358h-267zM489 481h299l74 369h-297z" />
<glyph unicode="$" horiz-adv-x="1077" d="M100 215v219h37q31 -182 116 -275t230 -110v553l-143 86q-131 78 -185.5 158t-54.5 194q0 154 105.5 249t277.5 100v116h82v-121q150 -14 262.5 -79.5t112.5 -161.5v-219h-37q-31 182 -112.5 272t-225.5 107v-519l174 -102q139 -84 196.5 -155.5t57.5 -182.5 q0 -174 -113.5 -276.5t-314.5 -102.5v-129h-82v133q-160 18 -271.5 84t-111.5 162zM260 1100q0 -84 50 -138.5t173 -127.5v473q-92 -4 -157.5 -61.5t-65.5 -145.5zM565 47q107 4 179.5 59.5t72.5 149.5q0 90 -56 152.5t-196 144.5v-506z" />
<glyph unicode="%" horiz-adv-x="1380" d="M66 1085q0 131 78.5 204t217.5 73t218 -72.5t79 -204.5q0 -131 -78.5 -203.5t-218.5 -72.5q-139 0 -217.5 72.5t-78.5 203.5zM147 0l932 1352h154l-932 -1352h-154zM188 1085q0 -205 174 -204q175 -1 175 204t-175 205q-174 0 -174 -205zM721 266q0 131 79 204t218 73 t218 -73t79 -204t-79 -203.5t-218 -72.5t-218 72.5t-79 203.5zM844 266q0 -205 174 -205t174 205t-174 205t-174 -205z" />
<glyph unicode="&#x26;" horiz-adv-x="1261" d="M86 287q0 80 39 144.5t93 111.5t161 125q-211 188 -211 405q0 147 99.5 233.5t269.5 86.5q158 0 247.5 -80t89.5 -207q0 -90 -38.5 -161t-100 -126t-160.5 -123l412 -450q74 80 135 174q31 49 49 82l41 -31q-23 -47 -45 -86q-61 -104 -137 -186l182 -199h-225l-82 88 q-172 -129 -389 -129q-207 0 -318.5 91t-111.5 237zM281 307q0 -276 274 -276q172 0 307 104l-422 461q-78 -68 -118.5 -135.5t-40.5 -153.5zM362 1073q0 -72 31 -138.5t68 -111.5t51 -55q92 78 140 150.5t48 166.5q0 119 -50 177.5t-113 58.5q-72 0 -123.5 -59.5 t-51.5 -188.5z" />
<glyph unicode="'" horiz-adv-x="421" d="M109 1352h204l-61 -553h-82z" />
<glyph unicode="(" horiz-adv-x="632" d="M70 492q0 295 127 511t385 410l20 -31q-348 -305 -348 -890q0 -586 348 -891l-20 -31q-258 194 -385 410.5t-127 511.5z" />
<glyph unicode=")" horiz-adv-x="632" d="M31 -399q348 305 348 891t-348 890l20 31q258 -195 385 -411t127 -510q0 -295 -127 -511.5t-385 -410.5z" />
<glyph unicode="*" horiz-adv-x="868" d="M96 911l297 103l-297 102l82 144l236 -216l-62 308h164l-61 -308l235 216l82 -144l-297 -102l297 -103l-82 -143l-235 215l61 -307h-164l62 307l-236 -215z" />
<glyph unicode="+" d="M72 614v123h409v410h123v-410h410v-123h-410v-409h-123v409h-409z" />
<glyph unicode="," horiz-adv-x="485" d="M115 82q0 53 34.5 88t88.5 35q61 0 97 -38t36 -106q0 -252 -226 -378l-20 30q82 55 123 122t41 155q-31 -20 -62 -21q-47 0 -79.5 33t-32.5 80z" />
<glyph unicode="-" horiz-adv-x="792" d="M135 471v143h522v-143h-522z" />
<glyph unicode="." horiz-adv-x="450" d="M115 84q0 45 32.5 78t77.5 33q47 0 79 -33t32 -78q0 -47 -33 -80t-78 -33t-77.5 33t-32.5 80z" />
<glyph unicode="/" horiz-adv-x="901" d="M47 0l658 1352h149l-657 -1352h-150z" />
<glyph unicode="0" horiz-adv-x="1196" d="M106 676q0 717 492 717t492 -717t-492 -717t-492 717zM311 676q0 -223 25.5 -361.5t88 -206t173.5 -67.5t173.5 67.5t88 206t25.5 361.5t-25.5 361.5t-88 206t-173.5 67.5t-173.5 -67.5t-88 -206t-25.5 -361.5z" />
<glyph unicode="1" horiz-adv-x="624" d="M29 1065l317 287h103v-1352h-185v1147l-198 -129z" />
<glyph unicode="2" d="M84 0v102q109 104 166 158q203 195 297 297t148.5 211t54.5 236q0 147 -77 227t-190 80q-125 0 -216 -90.5t-122 -257.5h-41q0 102 8.5 162.5t41.5 103.5q57 70 164.5 117t226.5 47q162 0 285.5 -85t123.5 -304q0 -129 -60 -242t-155.5 -210t-269.5 -251 q-180 -162 -242 -219h461q125 0 190.5 53t65.5 162h41v-133q0 -164 -174 -164h-727z" />
<glyph unicode="3" d="M82 178l33 37q80 -88 172 -131t207 -43q133 0 220 85t87 253q0 102 -39 174t-100.5 107.5t-126.5 35.5q-86 0 -127 -6t-119 -24l-53 86l555 518h-379q-125 0 -190.5 -53.5t-65.5 -161.5h-41v133q0 164 174 164h651v-82l-549 -512q80 20 184 20q82 0 180.5 -33.5 t174.5 -123t76 -242.5q0 -164 -77 -258t-181.5 -128t-202.5 -34q-148 0 -259.5 56.5t-203.5 162.5z" />
<glyph unicode="4" horiz-adv-x="1118" d="M37 348v82l676 922h164v-922h184v-82h-184v-348h-185v348h-655zM160 430h532v725z" />
<glyph unicode="5" d="M86 174l39 35q78 -86 168 -127t203 -41q133 0 220 85t87 253q0 158 -85 237.5t-243 79.5q-100 0 -256 -20l-82 82l21 594h768v-82h-600l-19 -502l66 4q117 6 143 6q197 0 344.5 -89t147.5 -310q0 -162 -79 -255t-187.5 -129t-215.5 -36q-145 0 -247.5 53.5t-192.5 161.5z " />
<glyph unicode="6" horiz-adv-x="1099" d="M106 676q0 358 126 537.5t386 179.5q154 0 318 -62l-10 -41q-127 20 -267 21q-180 0 -269 -138.5t-89 -384.5q61 43 134 68t173 25q209 0 309.5 -122t100.5 -339q0 -123 -49 -227.5t-149.5 -169t-241.5 -64.5q-242 0 -357 178t-115 539zM301 696q0 -338 74 -496.5 t203 -158.5q112 0 178.5 112.5t66.5 266.5q0 379 -276 379q-74 0 -131.5 -25.5t-114.5 -77.5z" />
<glyph unicode="7" horiz-adv-x="970" d="M53 1055v133q0 164 174 164h717v-82l-512 -1270h-184l512 1270h-410q-125 0 -190.5 -53.5t-65.5 -161.5h-41z" />
<glyph unicode="8" horiz-adv-x="1134" d="M96 307q0 139 89 226.5t239 152.5q-133 78 -205 157t-72 201q0 186 116 267.5t304 81.5q186 0 303 -78t117 -250q0 -113 -71.5 -198t-184.5 -140q98 -59 160.5 -108.5t104.5 -121t42 -169.5q0 -188 -132 -278.5t-339 -90.5q-205 0 -338 87t-133 261zM291 307 q0 -131 80 -198.5t196 -67.5q115 0 196 64.5t81 181.5q0 82 -43 145.5t-109.5 109.5t-175.5 103q-106 -53 -165.5 -128t-59.5 -210zM342 1085q0 -168 297 -307q74 53 114 118t40 169q0 133 -65.5 189.5t-160.5 56.5q-92 0 -158.5 -53.5t-66.5 -172.5z" />
<glyph unicode="9" horiz-adv-x="1097" d="M80 932q0 123 49 227.5t149.5 169t241.5 64.5q242 0 356.5 -179.5t114.5 -537.5t-126 -537.5t-386 -179.5q-153 0 -317 61l10 41q127 -20 266 -20q180 0 269.5 138t89.5 384q-61 -43 -134 -67.5t-174 -24.5q-209 0 -309 122t-100 339zM274 932q0 -379 277 -379 q74 0 131 25.5t115 76.5q0 338 -74 497t-203 159q-113 0 -179.5 -113t-66.5 -266z" />
<glyph unicode=":" horiz-adv-x="493" d="M135 84q0 45 33 78t78 33q47 0 79.5 -33t32.5 -78q0 -47 -32.5 -80t-79.5 -33q-45 0 -78 33t-33 80zM137 834q0 45 33 77.5t78 32.5q47 0 78.5 -32.5t31.5 -77.5q0 -47 -31.5 -79t-78.5 -32q-45 0 -78 31.5t-33 79.5z" />
<glyph unicode=";" horiz-adv-x="528" d="M133 82q0 53 34.5 88t88.5 35q61 0 97 -38t36 -106q0 -252 -226 -378l-20 30q82 55 123 122t41 155q-31 -20 -62 -21q-47 0 -79.5 33t-32.5 80zM158 838q0 45 32.5 78t77.5 33q47 0 79 -33t32 -78q0 -47 -33 -80t-78 -33t-77.5 33t-32.5 80z" />
<glyph unicode="&#x3c;" horiz-adv-x="1265" d="M61 655v62l1065 461v-123l-854 -369l854 -369v-122z" />
<glyph unicode="=" horiz-adv-x="1345" d="M135 430v123h1075v-123h-1075zM135 799v123h1075v-123h-1075z" />
<glyph unicode="&#x3e;" horiz-adv-x="1265" d="M139 195v122l854 369l-854 369v123l1065 -461v-62z" />
<glyph unicode="?" horiz-adv-x="978" d="M61 963q0 102 8.5 162.5t43.5 103.5q57 70 164.5 117t226.5 47q162 0 285.5 -85t123.5 -304q0 -86 -30.5 -154t-73.5 -117t-117 -119q-92 -82 -139 -145t-49 -150h-82q2 115 40 191t109 168q70 88 104 156.5t34 169.5q0 147 -77 227t-190 80q-127 0 -218 -91.5 t-122 -256.5h-41zM352 84q0 47 32 80t79 33t79.5 -33t32.5 -80q0 -45 -33.5 -78t-78.5 -33q-47 0 -79 33t-32 78z" />
<glyph unicode="@" horiz-adv-x="1753" d="M82 512q0 281 100.5 479.5t280.5 300t418 101.5q236 0 417 -99.5t281 -289t100 -451.5q0 -254 -99 -398.5t-300 -144.5q-166 0 -215 113h-10q-37 -47 -109 -80t-178 -33q-66 0 -133.5 28t-115.5 91.5t-48 167.5q0 156 144.5 221.5t377.5 65.5h62q0 199 -55.5 273.5 t-159.5 74.5q-92 0 -147.5 -39t-78.5 -135h-92q0 70 8.5 109.5t42.5 74.5q37 37 122 54.5t186 17.5q166 0 262 -89t96 -341v-369q0 -51 25.5 -87t76.5 -36q68 0 126.5 56.5t94 161t35.5 243.5q0 242 -88 412t-249.5 258t-378.5 88q-219 0 -380 -90.5t-249 -269.5t-88 -439 t88 -439t249 -269.5t380 -90.5q199 0 354.5 43t280.5 131l40 -61q-279 -195 -675 -195q-238 0 -418 101.5t-280.5 300t-100.5 479.5zM666 297q0 -94 56 -144.5t138 -50.5q68 0 113 33t82 90v277h-62q-152 0 -239.5 -56.5t-87.5 -148.5z" />
<glyph unicode="A" horiz-adv-x="1300" d="M45 0l573 1352h62l450 -1096q51 -119 96.5 -163t129.5 -52v-41q-37 -10 -82 -10q-98 0 -194.5 54t-153.5 212l-52 133h-573l-164 -389h-92zM332 471h502l-246 594z" />
<glyph unicode="B" horiz-adv-x="1273" d="M33 1311v41h532q223 0 388 -74t165 -285q0 -96 -65.5 -174t-200.5 -123q188 -31 263 -111.5t75 -215.5q0 -207 -163 -288t-400 -81h-410v1106q0 104 -28.5 154.5t-114.5 50.5h-41zM401 100q95 -28 189 -28h6q186 0 287.5 73.5t101.5 212.5t-99.5 213t-289.5 74h-195v-545 zM401 727h195q84 0 158.5 32t122 94t47.5 151q0 92 -55.5 154.5t-140.5 92t-173 29.5q-72 0 -154 -20v-533z" />
<glyph unicode="C" horiz-adv-x="1361" d="M90 655q0 201 85 371t231.5 268.5t318.5 98.5q164 0 288 -46.5t183 -117.5q35 -43 43 -114t8 -193h-41q-39 199 -143.5 294t-276.5 95q-221 0 -356 -156t-135 -500q0 -162 52 -301t163 -226t276 -87q150 0 261.5 71.5t199.5 215.5l41 -31q-94 -184 -232 -261t-331 -77 q-190 0 -334.5 92t-222.5 251t-78 353z" />
<glyph unicode="D" horiz-adv-x="1464" d="M33 1311v41h536q397 0 601 -176.5t204 -491.5q0 -203 -86 -357.5t-255 -240.5t-410 -86h-406v1106q0 104 -28.5 154.5t-114.5 50.5h-41zM408 98q111 -26 201 -26h7q152 0 274 74.5t191.5 211t69.5 318.5q0 178 -68.5 315t-191.5 213t-279 76q-98 0 -204 -33v-1149z" />
<glyph unicode="E" horiz-adv-x="1208" d="M33 1311v41h872q174 0 174 -164v-154h-41q0 236 -256 236h-381v-533h553v-82h-553v-573h359q141 0 221 51t127 174l41 -10l-72 -195q-37 -102 -153 -102h-707v1106q0 104 -28.5 154.5t-114.5 50.5h-41z" />
<glyph unicode="F" horiz-adv-x="1079" d="M33 1311v41h817q174 0 174 -164v-154h-41q0 236 -256 236h-326v-543h463v-82h-463v-645h-184v1106q0 104 -28.5 154.5t-114.5 50.5h-41z" />
<glyph unicode="G" horiz-adv-x="1474" d="M90 696q0 195 78 353.5t222.5 251t334.5 92.5q176 0 304 -46.5t188 -117.5q33 -41 42 -108.5t9 -168.5h-41q-39 180 -147.5 269.5t-293.5 89.5q-166 0 -276.5 -87t-162.5 -226.5t-52 -301.5q0 -346 135 -500.5t356 -154.5q104 0 178 18.5t140 53.5v356q0 70 22.5 121 t97 85t218.5 34v-41q-92 0 -123 -47.5t-31 -147.5v-385q-111 -68 -231.5 -98.5t-270.5 -30.5q-200 0 -359 98.5t-248 267.5t-89 371z" />
<glyph unicode="H" horiz-adv-x="1419" d="M33 1311v41h184q76 0 114 -19.5t54 -71t16 -155.5v-369h615v615h184v-1106q0 -104 28.5 -154.5t114.5 -50.5h41v-41h-184q-76 0 -113.5 19.5t-54 70.5t-16.5 156v409h-615v-655h-184v1106q0 104 -28.5 154.5t-114.5 50.5h-41z" />
<glyph unicode="I" horiz-adv-x="583" d="M182 246v1106h185v-1106q0 -104 28.5 -154.5t114.5 -50.5h41v-41h-184q-76 0 -114 19.5t-54.5 70.5t-16.5 156z" />
<glyph unicode="J" horiz-adv-x="534" d="M-18 -240q98 0 146 104.5t48 295.5v1192h184v-1192q0 -160 -33.5 -255t-115.5 -140.5t-229 -45.5v41z" />
<glyph unicode="K" horiz-adv-x="1386" d="M33 1311v41h184q76 0 114 -19.5t54 -71t16 -155.5v-399l430 430l41 43q57 59 96.5 93t92.5 56.5t119 22.5h102v-52q-86 0 -149.5 -29.5t-147.5 -113.5l-399 -399l471 -492q90 -92 182 -154.5t166 -72.5v-39q-61 -20 -133 -20q-96 0 -200.5 52t-240.5 193l-430 451v-676 h-184v1106q0 104 -28.5 154.5t-114.5 50.5h-41z" />
<glyph unicode="L" horiz-adv-x="1142" d="M33 1311v41h184q76 0 114 -19.5t54 -71t16 -155.5v-1024h727v-82h-911v1106q0 104 -28.5 154.5t-114.5 50.5h-41z" />
<glyph unicode="M" horiz-adv-x="1751" d="M176 0v1352h195l491 -1065l481 1065h185v-1004q0 -190 48 -294.5t146 -104.5v-41q-147 0 -229 45t-116 140t-34 255v789l-512 -1137h-40l-533 1157v-1157h-82z" />
<glyph unicode="N" horiz-adv-x="1402" d="M20 1311v41h134q94 0 159.5 -31t116.5 -92l717 -891v1014h82v-1372h-41l-881 1095v-1075h-82v1106q0 98 -42 151.5t-142 53.5h-21z" />
<glyph unicode="O" horiz-adv-x="1458" d="M94 676q0 201 78 364.5t222.5 258t334.5 94.5t334.5 -94.5t222.5 -258t78 -364.5t-78 -365t-222 -258t-335 -94q-190 0 -334.5 94t-222.5 258t-78 365zM299 676q0 -195 51 -337t148.5 -220t230.5 -78t230.5 78t148.5 220t51 337t-51 337t-148.5 220t-230.5 78t-230.5 -78 t-148.5 -220.5t-51 -336.5z" />
<glyph unicode="P" horiz-adv-x="1130" d="M33 1311v41h532q197 0 354.5 -84t157.5 -326q0 -160 -82 -246t-183 -114.5t-185 -28.5h-226v-553h-184v1106q0 104 -28.5 154.5t-114.5 50.5h-41zM401 625h154q66 0 139.5 33.5t125.5 107.5t52 186q0 113 -52 186.5t-125.5 107.5t-139.5 34q-72 0 -154 -20v-635z" />
<glyph unicode="Q" horiz-adv-x="1462" d="M96 676q0 201 78 364.5t222.5 258t334.5 94.5t334.5 -94.5t222.5 -258t78 -364.5q0 -258 -126 -447.5t-341 -246.5q31 -98 113 -181.5t184 -131.5t190 -48v-41q-243 0 -452 92t-387 314q-209 61 -330 249.5t-121 440.5zM301 676q0 -195 51 -337t148.5 -220t230.5 -78 t230.5 78t148.5 220t51 337t-51 337t-148.5 220t-230.5 78t-230.5 -78t-148.5 -220.5t-51 -336.5z" />
<glyph unicode="R" horiz-adv-x="1218" d="M33 1311v41h532q193 0 352.5 -77t159.5 -290q0 -160 -93 -238.5t-234 -111.5l215 -359q76 -127 136 -177t140 -58v-41q-18 -8 -53 -14t-72 -6q-106 0 -187 64.5t-179 231.5l-205 349h-144v-625h-184v1106q0 104 -28.5 154.5t-114.5 50.5h-41zM401 696h148q68 0 143.5 31 t127.5 96.5t52 163.5t-53 164t-128 97.5t-142 31.5q-66 0 -148 -20v-564z" />
<glyph unicode="S" horiz-adv-x="1091" d="M111 215v219h36q35 -205 135.5 -296t276.5 -91q111 0 189.5 55.5t78.5 153.5q0 86 -53 149.5t-172 133.5l-252 149q-131 78 -185 158t-54 194q0 158 109.5 253.5t287.5 95.5q104 0 206.5 -30t169 -86t66.5 -130v-219h-37q-35 205 -132 294t-273 89q-94 0 -166 -57.5 t-72 -149.5q0 -84 52.5 -139.5t175.5 -129.5l252 -149q139 -84 196.5 -155.5t57.5 -182.5q0 -172 -115 -275.5t-311 -103.5q-113 0 -221.5 31t-177 88t-68.5 131z" />
<glyph unicode="T" horiz-adv-x="1193" d="M43 1034v154q0 164 174 164h952v-82h-460v-1270h-185v1270h-184q-256 0 -256 -236h-41z" />
<glyph unicode="U" horiz-adv-x="1406" d="M18 1311v41h185q76 0 113.5 -19.5t54 -71t16.5 -155.5v-584q0 -227 84 -344t279 -117q156 0 246.5 55.5t129.5 168t39 299.5v768h82v-768q0 -213 -45 -343t-158.5 -195.5t-318.5 -65.5q-197 0 -311.5 66.5t-162.5 197.5t-48 340v522q0 104 -29 154.5t-115 50.5h-41z" />
<glyph unicode="V" horiz-adv-x="1310" d="M-59 1327v41q10 0 29.5 2t39.5 2q102 0 196.5 -52t160.5 -208l350 -825l450 1065h99l-588 -1372h-37l-475 1132q-51 119 -96 163t-129 52z" />
<glyph unicode="W" horiz-adv-x="1773" d="M-66 1327v41q10 0 30 2t40 2q113 0 204 -51t146 -209l275 -790l219 649l-49 141q-41 119 -87 163t-139 52v41q10 0 30 2t40 2q113 0 204 -51t146 -209l275 -790l350 1030h88l-469 -1372h-41l-303 862l-295 -862h-41l-397 1132q-41 119 -87 163t-139 52z" />
<glyph unicode="X" horiz-adv-x="1366" d="M-18 1311v41h245q90 0 151.5 -58.5t135.5 -167.5l205 -307l409 533h103l-461 -604l328 -482q63 -94 136 -156.5t161 -68.5v-41h-215q-88 0 -156 62.5t-131 162.5l-246 369l-461 -594h-102l512 666l-287 419q-49 72 -86 114t-96 75t-145 37z" />
<glyph unicode="Y" horiz-adv-x="1286" d="M-51 1311v41h184q102 0 172 -60.5t135 -165.5l297 -460l428 686h92l-479 -779v-573h-184v559l-348 526q-53 76 -90 119t-87.5 73t-119.5 34z" />
<glyph unicode="Z" horiz-adv-x="1210" d="M49 0v41l850 1229h-491q-256 0 -256 -236h-41v154q0 164 174 164h891l-871 -1270h840v-82h-1096z" />
<glyph unicode="[" horiz-adv-x="647" d="M154 -410v1803h440v-82h-277v-1639h277v-82h-440z" />
<glyph unicode="\" horiz-adv-x="901" d="M47 1352h150l657 -1352h-149z" />
<glyph unicode="]" horiz-adv-x="647" d="M53 -328h277v1639h-277v82h441v-1803h-441v82z" />
<glyph unicode="^" horiz-adv-x="1003" d="M41 676l440 717h41l441 -717h-138l-323 526l-324 -526h-137z" />
<glyph unicode="_" horiz-adv-x="884" d="M33 0h819v-123h-819v123z" />
<glyph unicode="`" horiz-adv-x="409" d="M41 1393h205l123 -410h-103z" />
<glyph unicode="a" horiz-adv-x="985" d="M80 266q0 156 144.5 221.5t377.5 65.5h62q0 201 -55.5 274.5t-159.5 73.5q-92 0 -147.5 -39t-78.5 -135h-92q0 70 8 110t43 74q37 37 122 54.5t185 17.5q166 0 262.5 -89t96.5 -341v-553h-103l-71 92h-10q-37 -47 -109 -79.5t-178 -32.5q-66 0 -133.5 27.5t-115.5 91 t-48 167.5zM274 266q0 -94 56.5 -144t138.5 -50q68 0 113 32.5t82 90.5v276h-62q-152 0 -240 -56.5t-88 -148.5z" />
<glyph unicode="b" horiz-adv-x="1071" d="M-37 1311v41h184q76 0 114 -19.5t54.5 -71t16.5 -155.5v-184q59 29 118.5 45t137.5 16q190 0 289.5 -141.5t99.5 -360.5q0 -217 -96.5 -359t-272.5 -142q-104 0 -171.5 32.5t-104.5 79.5h-10l-72 -92h-103v1106q0 104 -28.5 154.5t-114.5 50.5h-41zM332 184 q37 -55 87 -89t128 -34q117 0 176 116t59 304q0 190 -62.5 305t-193.5 115q-43 0 -88 -16.5t-106 -44.5v-656z" />
<glyph unicode="c" horiz-adv-x="989" d="M92 481q0 141 50.5 255t151.5 180.5t249 66.5q225 0 297 -72q35 -35 43 -85t8 -181h-41q-8 127 -80 191.5t-186 64.5q-147 0 -222 -116.5t-75 -303.5q0 -186 74.5 -303t222.5 -117q104 0 171.5 40t125.5 124l41 -30q-68 -115 -160 -165t-219 -50q-148 0 -249 66.5 t-151.5 180t-50.5 254.5z" />
<glyph unicode="d" horiz-adv-x="1073" d="M96 481q0 219 99.5 360.5t289.5 141.5q78 0 137.5 -16.5t118.5 -44.5v184q0 104 -28.5 154.5t-114.5 50.5h-41v41h184q76 0 114 -19.5t54.5 -71t16.5 -155.5v-1106h-103l-71 92h-11q-45 -51 -105.5 -81.5t-170.5 -30.5q-178 0 -273.5 141t-95.5 360zM291 481 q0 -188 59.5 -304t175.5 -116q84 0 127 31t88 92v656q-61 29 -106 45t-88 16q-131 0 -193.5 -114.5t-62.5 -305.5z" />
<glyph unicode="e" horiz-adv-x="999" d="M92 481q0 139 49 254t142.5 181.5t218.5 66.5q207 0 308 -115.5t101 -335.5l-4 -81h-620q0 -172 73.5 -281t202.5 -109q96 0 163 41t124 123l41 -30q-68 -113 -158 -164t-211 -51q-139 0 -235.5 66.5t-145.5 180t-49 254.5zM287 532h430q0 180 -53.5 274.5t-161.5 94.5 q-61 0 -110.5 -48t-77 -132t-27.5 -189z" />
<glyph unicode="f" horiz-adv-x="690" d="M43 881v82h143v61q0 348 359 348q129 0 174 -31q35 -27 72 -92l-62 -51q-61 92 -194 92q-164 0 -164 -266v-61h286v-82h-286v-881h-185v881h-143z" />
<glyph unicode="g" horiz-adv-x="1007" d="M53 -92q0 94 63.5 163.5t162.5 102.5q-82 45 -82 123q0 41 18 63.5t53 49.5q-66 33 -109.5 102.5t-43.5 163.5q0 307 389 307h379v-51l-133 -21q61 -39 102 -100t41 -135q0 -307 -389 -307q-215 0 -215 -72t215 -72q199 0 324.5 -78.5t125.5 -238.5q0 -166 -121.5 -242 t-328.5 -76t-329 76t-122 242zM238 -92q0 -119 71.5 -177.5t194.5 -58.5t194.5 58.5t71.5 177.5q0 205 -246 235l-112 11q-84 -33 -129 -92.5t-45 -153.5zM299 676q0 -123 56.5 -179.5t148.5 -56.5t148.5 56.5t56.5 179.5q0 117 -56.5 176t-148.5 59t-148.5 -56t-56.5 -179z " />
<glyph unicode="h" horiz-adv-x="1083" d="M-37 1311v41h184q76 0 114 -19.5t54.5 -71t16.5 -155.5v-225q43 43 111.5 72.5t154.5 29.5q154 0 251 -82t97 -287v-614h-184v614q0 143 -64.5 210t-160.5 67q-109 0 -205 -109v-782h-185v1106q0 104 -28.5 154.5t-114.5 50.5h-41z" />
<glyph unicode="i" horiz-adv-x="503" d="M-6 922v41h184q76 0 114 -19.5t54 -71t16 -155.5v-717h-184v717q0 104 -28.5 154.5t-114.5 50.5h-41zM141 1217q0 43 26 67.5t69 24.5q47 0 80.5 -39t33.5 -92q0 -43 -25.5 -68t-68.5 -25q-47 0 -81 39t-34 93z" />
<glyph unicode="j" horiz-adv-x="503" d="M-16 -348q98 0 146 104.5t48 294.5v666q0 104 -28.5 154.5t-114.5 50.5h-41v41h184q76 0 114 -19.5t54 -71t16 -155.5v-666q0 -160 -33.5 -255t-115.5 -140t-229 -45v41zM141 1217q0 43 26 67.5t69 24.5q47 0 80.5 -39t33.5 -92q0 -43 -25.5 -68t-68.5 -25q-47 0 -81 39 t-34 93z" />
<glyph unicode="k" horiz-adv-x="993" d="M-37 1311v41h184q76 0 114 -19.5t54.5 -71t16.5 -155.5v-604l256 327q53 66 112.5 100t153.5 34h61v-52q-55 0 -106 -22.5t-88 -69.5l-225 -287l256 -327q59 -78 111 -117t114 -49v-39q-45 -20 -103 -20h-2q-172 0 -294 163l-246 328v-471h-185v1106q0 104 -28.5 154.5 t-114.5 50.5h-41z" />
<glyph unicode="l" horiz-adv-x="495" d="M-29 1311v41h185q76 0 113.5 -19.5t54 -71t16.5 -155.5v-1106h-184v1106q0 104 -29 154.5t-115 50.5h-41z" />
<glyph unicode="m" horiz-adv-x="1607" d="M-6 922v41h184q76 0 116 -20.5t58 -61.5h10q43 43 112 72.5t155 29.5t147.5 -31.5t97.5 -111.5q53 68 136.5 105.5t171.5 37.5q131 0 208.5 -82t77.5 -287v-614h-184v614q0 147 -41 212t-123 65q-57 0 -120.5 -42t-94.5 -91q10 -31 10 -144v-614h-184v614q0 147 -41 212 t-123 65q-109 0 -205 -109v-782h-184v717q0 104 -28.5 154.5t-114.5 50.5h-41z" />
<glyph unicode="n" horiz-adv-x="1114" d="M-6 922v41h184q76 0 116 -20.5t58 -61.5q51 41 122 71.5t155 30.5q154 0 251 -82t97 -287v-614h-184v614q0 143 -64.5 210t-161.5 67q-109 0 -205 -109v-782h-184v717q0 104 -28.5 154.5t-114.5 50.5h-41z" />
<glyph unicode="o" d="M92 481q0 139 53.5 254t155.5 181.5t242 66.5q139 0 241.5 -66.5t155.5 -181t53 -254.5q0 -139 -53 -253.5t-155.5 -181t-241.5 -66.5q-140 0 -242 66.5t-155.5 181t-53.5 253.5zM287 481q0 -117 31.5 -213t90 -151.5t134.5 -55.5q75 0 133.5 55.5t90.5 152t32 212.5 q0 117 -32 213.5t-90.5 151.5t-133.5 55q-76 0 -134.5 -55t-90 -151.5t-31.5 -213.5z" />
<glyph unicode="p" horiz-adv-x="1101" d="M-6 922v41h184q78 0 118 -21.5t56 -71.5q113 113 287 113q176 0 272.5 -142.5t96.5 -359.5q0 -219 -99.5 -360t-290.5 -141q-78 0 -137 16t-119 45v-430h-184v1106q0 104 -28.5 154.5t-114.5 50.5h-41zM362 123q61 -29 106.5 -45.5t88.5 -16.5q131 0 193.5 115t62.5 305 q0 188 -59.5 304t-175.5 116q-137 0 -216 -123v-655z" />
<glyph unicode="q" horiz-adv-x="1073" d="M96 481q0 219 95.5 360.5t273.5 141.5q104 0 172 -32.5t104 -80.5h11l71 93h103v-1352h-185v430q-59 -29 -118.5 -45t-137.5 -16q-190 0 -289.5 141t-99.5 360zM291 481q0 -190 62.5 -305t193.5 -115q43 0 88 16.5t106 45.5v655q-43 57 -90 90t-125 33 q-117 0 -176 -115.5t-59 -304.5z" />
<glyph unicode="r" horiz-adv-x="813" d="M0 922v41h164q78 0 118 -21.5t56 -71.5q45 45 110.5 79t145.5 34q82 0 123 -31q35 -27 71 -92l-81 -61q-23 31 -66 46t-98 15q-61 0 -112.5 -27.5t-82.5 -74.5v-62v-696h-184v717q0 104 -29 154.5t-115 50.5h-20z" />
<glyph unicode="s" horiz-adv-x="913" d="M100 276h41q18 -102 89 -158.5t198 -56.5q113 0 169 39t56 105q0 59 -44 102t-140 82l-123 51q-123 49 -184.5 115t-61.5 162q0 125 94.5 195.5t243.5 70.5q225 0 307 -82q35 -35 43.5 -78t8.5 -137h-41q-16 102 -86 158.5t-191 56.5q-96 0 -150.5 -40t-54.5 -103 q0 -106 164 -174l123 -52q139 -57 202.5 -121.5t63.5 -164.5q0 -125 -100 -195.5t-258 -70.5h-6q-230 0 -311 81q-35 35 -43.5 79t-8.5 136z" />
<glyph unicode="t" horiz-adv-x="692" d="M43 881v82h143v184l103 123h82v-307h245v-82h-245v-635q0 -184 143 -185q49 0 83 10.5t71 30.5l20 -41q-47 -35 -104.5 -58t-151.5 -23q-115 0 -180.5 65.5t-65.5 200.5v635h-143z" />
<glyph unicode="u" horiz-adv-x="1095" d="M-14 922v41h164q76 0 113.5 -19.5t54 -71t16.5 -155.5v-369q0 -143 64.5 -209.5t160.5 -66.5q109 0 205 108v783h184v-963h-102l-72 82h-10q-43 -43 -111.5 -72.5t-154.5 -29.5q-154 0 -251 81.5t-97 286.5v369q0 104 -29 154.5t-115 50.5h-20z" />
<glyph unicode="v" horiz-adv-x="1017" d="M-10 938v41q10 0 29.5 2t39.5 2q109 0 197 -54.5t152 -201.5l184 -440l287 676h102l-420 -983h-41l-317 747q-49 115 -94.5 161t-118.5 50z" />
<glyph unicode="w" horiz-adv-x="1533" d="M-10 938v41q10 0 30.5 2t40.5 2q111 0 196 -56.5t142 -199.5l174 -430l175 440q-49 109 -93.5 153t-111.5 48v41q10 0 30.5 2t40.5 2q111 0 196 -56.5t142 -199.5l174 -430l267 666h102l-399 -983h-41l-256 634l-256 -634h-41l-297 747q-47 115 -93 161t-122 50z" />
<glyph unicode="x" horiz-adv-x="999" d="M16 922v41h174q68 0 127.5 -43t104.5 -121l127 -215l266 379h103l-328 -461l178 -297q84 -147 221 -164v-41h-184q-68 0 -127.5 43t-104.5 121l-127 215l-266 -379h-102l328 461l-179 297q-86 150 -211 164z" />
<glyph unicode="y" horiz-adv-x="1052" d="M-20 942v41h174q178 0 245 -164l234 -567l258 711h102l-399 -1096q-59 -162 -131 -219.5t-187 -57.5h-61v62q100 0 164.5 46t112.5 169l40 113l-327 798q-57 147 -225 164z" />
<glyph unicode="z" horiz-adv-x="954" d="M90 0v39l533 842h-236q-127 0 -191.5 -48.5t-64.5 -136.5h-41v103q0 164 174 164h625l-553 -881h553v-82h-799z" />
<glyph unicode="{" horiz-adv-x="622" d="M23 461v61q109 16 156.5 79t47.5 157v286q0 141 79 231.5t259 137.5v-61q-102 -31 -138 -80t-36 -146v-348q0 -121 -52 -188.5t-163 -97.5q111 -31 163 -98.5t52 -188.5v-348q0 -96 36 -146.5t138 -79.5v-61q-180 43 -259 134t-79 235v286q0 94 -48 156.5t-156 79.5z" />
<glyph unicode="|" horiz-adv-x="491" d="M154 -389v1782h184v-1782h-184z" />
<glyph unicode="}" horiz-adv-x="622" d="M57 -369q102 29 138 79t36 147v348q0 121 52.5 188.5t162.5 98.5q-111 31 -163 98t-52 188v348q0 96 -35.5 145.5t-138.5 80.5v61q180 -47 259 -137t79 -232v-286q0 -94 48.5 -156.5t156.5 -79.5v-61q-109 -16 -157 -79t-48 -157v-286q0 -143 -78.5 -234.5t-259.5 -134.5 v61z" />
<glyph unicode="~" horiz-adv-x="1288" d="M123 389q0 143 71.5 215t174.5 72q72 0 141.5 -22.5t165.5 -65.5q84 -39 139 -57.5t107 -18.5q76 0 119.5 40t43.5 103h82q0 -143 -71.5 -214.5t-173.5 -71.5q-72 0 -141.5 22.5t-166.5 65.5q-84 39 -139 57t-106 18q-76 0 -120 -39.5t-44 -103.5h-82z" />
<glyph unicode="&#xa2;" horiz-adv-x="989" d="M82 481q0 209 105.5 347.5t304.5 154.5v82h81v-82q88 0 155 -18.5t101 -53.5q35 -35 43.5 -85t8.5 -181h-41q-8 127 -80 191.5t-187 64.5v-840q104 0 172 40t125 124l41 -30q-61 -104 -144 -155.5t-194 -59.5v-82h-81v82q-199 16 -304.5 154t-105.5 347zM276 481 q0 -158 55.5 -269.5t160.5 -139.5v819q-104 -33 -160 -142.5t-56 -267.5z" />
<glyph unicode="&#xa3;" horiz-adv-x="1081" d="M66 0v51q88 27 131 117t43 283v204h-144v82h144v205q0 252 96 341t262 89q100 0 185 -17.5t122 -54.5q35 -35 43 -74.5t8 -109.5h-92q-23 96 -78 135t-147 39q-104 0 -159.5 -73.5t-55.5 -274.5v-205h287v-82h-287v-204q0 -143 -28.5 -231.5t-84.5 -137.5h379 q256 0 256 235h41v-153q0 -164 -174 -164h-747z" />
<glyph unicode="&#xa5;" horiz-adv-x="1406" d="M49 1311v41h184q102 0 172 -60.5t136 -165.5l297 -460l428 686h92l-479 -779v-30h194v-82h-194v-82h194v-82h-194v-297h-185v297h-194v82h194v82h-194v82h194l-348 542q-53 76 -90 119t-87 73t-120 34z" />
<glyph unicode="&#xa8;" horiz-adv-x="634" d="M41 1516q0 47 27.5 74.5t74.5 27.5t75 -27.5t28 -74.5t-28 -75t-75 -28t-74.5 27.5t-27.5 75.5zM389 1516q0 47 27.5 74.5t75.5 27.5q47 0 74.5 -27.5t27.5 -74.5t-27.5 -75t-74.5 -28q-48 0 -75.5 27.5t-27.5 75.5z" />
<glyph unicode="&#xa9;" horiz-adv-x="1617" d="M82 676q0 207 94 372.5t260 260t373 94.5t373 -94.5t260 -260t94 -372.5t-94 -373t-260 -260t-373 -94t-373 94t-260 260t-94 373zM164 676q0 -186 82 -333.5t229.5 -229.5t333.5 -82t333.5 82t229.5 229t82 334q0 186 -82 333.5t-229.5 229.5t-333.5 82t-333.5 -82 t-229.5 -229.5t-82 -333.5zM399 670q0 131 55.5 241.5t149.5 175t205 64.5q104 0 186 -30.5t119 -76.5q23 -27 29 -73.5t6 -126.5h-27q-47 254 -272 254q-143 0 -231.5 -101.5t-88.5 -326.5q0 -166 81 -283t239 -117q98 0 170 46t129 141l27 -21q-63 -121 -151.5 -171 t-215.5 -50q-123 0 -216 59.5t-143.5 163t-50.5 232.5z" />
<glyph unicode="&#xab;" horiz-adv-x="761" d="M72 461l317 399h82l-195 -399l195 -400h-82zM358 461l205 297h82l-123 -297l123 -297h-82z" />
<glyph unicode="&#xad;" horiz-adv-x="792" d="M135 471v143h522v-143h-522z" />
<glyph unicode="&#xae;" horiz-adv-x="1617" d="M82 676q0 207 94 372.5t260 260t373 94.5t373 -94.5t260 -260t94 -372.5t-94 -373t-260 -260t-373 -94t-373 94t-260 260t-94 373zM164 676q0 -186 82 -333.5t229.5 -229.5t333.5 -82t333.5 82t229.5 229t82 334q0 186 -82 333.5t-229.5 229.5t-333.5 82t-333.5 -82 t-229.5 -229.5t-82 -333.5zM432 1104v26h344q125 0 228.5 -50t103.5 -191q0 -100 -62.5 -152.5t-148.5 -66.5l147 -238q51 -82 88 -113.5t87 -37.5v-25q-20 -14 -86 -14q-64 0 -112 41t-116 149l-137 230h-98v-406h-119v715q0 68 -18.5 100.5t-73.5 32.5h-27zM670 721 q61 -14 100 -14q41 0 89 20.5t82 63.5t34 106t-34 106.5t-82 62.5t-89 19q-39 0 -100 -14v-350z" />
<glyph unicode="&#xb4;" horiz-adv-x="358" d="M41 1434l82 266h194l-194 -266h-82z" />
<glyph unicode="&#xb8;" horiz-adv-x="368" d="M82 -317h102q82 0 82 65q0 68 -82 68h-92v184h92v-102q184 0 185 -150q0 -70 -46.5 -109.5t-117.5 -39.5h-123v84z" />
<glyph unicode="&#xbb;" horiz-adv-x="761" d="M117 164l123 297l-123 297h82l204 -297l-204 -297h-82zM291 61l194 400l-194 399h82l317 -399l-317 -400h-82z" />
<glyph unicode="&#x2c6;" horiz-adv-x="634" d="M41 1352l164 235h225l164 -235h-102l-175 164l-174 -164h-102z" />
<glyph unicode="&#x2da;" horiz-adv-x="348" d="M0 1260q0 70 52 122t122 52t122 -52.5t52 -121.5q0 -70 -52 -122.5t-122 -52.5t-122 52.5t-52 122.5zM82 1260q0 -47 26.5 -75t65.5 -28t65.5 27.5t26.5 75.5q0 47 -26.5 74.5t-65.5 27.5t-65.5 -27.5t-26.5 -74.5z" />
<glyph unicode="&#x2dc;" horiz-adv-x="542" d="M41 1393q0 106 29.5 150t93.5 44q31 0 56.5 -11t55.5 -32q6 -4 27 -15t39 -17.5t37 -6.5q23 0 42 29t19 53h62q0 -106 -30 -150t-93 -44q-29 0 -54.5 10t-56.5 31q-35 20 -56.5 30.5t-47.5 10.5q-23 0 -42.5 -29t-19.5 -53h-61z" />
<glyph unicode="&#x401;" horiz-adv-x="1208" d="M33 1311v41h872q174 0 174 -164v-154h-41q0 236 -256 236h-381v-533h553v-82h-553v-573h359q141 0 221 51t127 174l41 -10l-72 -195q-37 -102 -153 -102h-707v1106q0 104 -28.5 154.5t-114.5 50.5h-41zM317 1598q0 47 27.5 74.5t74.5 27.5t75 -27.5t28 -74.5t-28 -75 t-75 -28t-74.5 27.5t-27.5 75.5zM665 1598q0 47 27.5 74.5t75.5 27.5q47 0 74.5 -27.5t27.5 -74.5t-27.5 -75t-74.5 -28q-48 0 -75.5 27.5t-27.5 75.5z" />
<glyph unicode="&#x402;" horiz-adv-x="1277" d="M-2 1270v82h717v-82h-266v-471q51 33 148 57.5t200 24.5q190 0 299.5 -98.5t109.5 -372.5q0 -184 -33.5 -290t-114.5 -154t-231 -48v41q195 0 195 451q0 211 -78 294.5t-209 83.5q-74 0 -154.5 -24.5t-131.5 -56.5v-707h-185v1270h-266z" />
<glyph unicode="&#x403;" horiz-adv-x="1099" d="M33 1311v41h850q174 0 174 -164v-154h-41q0 236 -256 236h-359v-1270h-184v1106q0 104 -28.5 154.5t-114.5 50.5h-41zM500 1434l82 266h194l-194 -266h-82z" />
<glyph unicode="&#x404;" horiz-adv-x="1361" d="M90 655q0 201 85 371t231.5 268.5t318.5 98.5q164 0 288 -46.5t183 -117.5q35 -43 43 -114t8 -193h-41q-39 199 -143.5 294t-276.5 95q-209 0 -342 -141.5t-149 -452.5h678v-82h-678q6 -158 59.5 -293t163 -218t268.5 -83q150 0 261.5 71.5t199.5 215.5l41 -31 q-94 -184 -232 -261t-331 -77q-190 0 -334.5 92t-222.5 251t-78 353z" />
<glyph unicode="&#x405;" horiz-adv-x="1091" d="M111 215v219h36q35 -205 135.5 -296t276.5 -91q111 0 189.5 55.5t78.5 153.5q0 86 -53 149.5t-172 133.5l-252 149q-131 78 -185 158t-54 194q0 158 109.5 253.5t287.5 95.5q104 0 206.5 -30t169 -86t66.5 -130v-219h-37q-35 205 -132 294t-273 89q-94 0 -166 -57.5 t-72 -149.5q0 -84 52.5 -139.5t175.5 -129.5l252 -149q139 -84 196.5 -155.5t57.5 -182.5q0 -172 -115 -275.5t-311 -103.5q-113 0 -221.5 31t-177 88t-68.5 131z" />
<glyph unicode="&#x406;" horiz-adv-x="583" d="M182 246v1106h185v-1106q0 -104 28.5 -154.5t114.5 -50.5h41v-41h-184q-76 0 -114 19.5t-54.5 70.5t-16.5 156z" />
<glyph unicode="&#x407;" horiz-adv-x="583" d="M14 1567q0 47 28 74.5t75 27.5t74.5 -27.5t27.5 -74.5t-27.5 -75t-74.5 -28t-75 28t-28 75zM182 246v1106h185v-1106q0 -104 28.5 -154.5t114.5 -50.5h41v-41h-184q-76 0 -114 19.5t-54.5 70.5t-16.5 156zM330 1567q0 47 27.5 74.5t74.5 27.5t75 -27.5t28 -74.5t-28 -75 t-75 -28t-74.5 28t-27.5 75z" />
<glyph unicode="&#x408;" horiz-adv-x="534" d="M-18 -240q98 0 146 104.5t48 295.5v1192h184v-1192q0 -160 -33.5 -255t-115.5 -140.5t-229 -45.5v41z" />
<glyph unicode="&#x409;" horiz-adv-x="1974" d="M-12 -2v51q102 4 175 88t118 314.5t45 654.5q0 104 -29 154.5t-115 50.5h-20v41h993v-574h225q225 0 384 -84t159 -305t-158.5 -305t-384.5 -84h-409v1270h-492v-164q0 -442 -52 -691t-137 -342t-200 -93q-47 0 -102 18zM1155 102q86 -31 195 -30q176 0 272 79.5 t96 237.5t-96 238t-272 80q-109 0 -195 -31v-574z" />
<glyph unicode="&#x40a;" horiz-adv-x="1994" d="M33 1311v41h184q76 0 114 -19.5t54 -71t16 -155.5v-369h594v615h185v-615h225q223 0 383 -81t160 -287q0 -207 -160 -288t-383 -81h-410v655h-594v-655h-184v1106q0 104 -28.5 154.5t-114.5 50.5h-41zM1180 102q86 -31 194 -30q174 0 271.5 75.5t97.5 221.5 q0 145 -97.5 221t-271.5 76q-109 0 -194 -31v-533z" />
<glyph unicode="&#x40b;" horiz-adv-x="1296" d="M-2 1270v82h717v-82h-266v-471q51 33 148 57.5t200 24.5q184 0 296.5 -82t112.5 -287v-512h-184v512q0 143 -80 209.5t-207 66.5q-74 0 -154.5 -24.5t-131.5 -56.5v-707h-185v1270h-266z" />
<glyph unicode="&#x40c;" horiz-adv-x="1386" d="M33 1311v41h184q76 0 114 -19.5t54 -71t16 -155.5v-399l430 430l41 43q57 59 96.5 93t92.5 56.5t119 22.5h102v-52q-86 0 -149.5 -29.5t-147.5 -113.5l-399 -399l471 -492q90 -92 182 -154.5t166 -72.5v-39q-61 -20 -133 -20q-96 0 -200.5 52t-240.5 193l-430 451v-676 h-184v1106q0 104 -28.5 154.5t-114.5 50.5h-41zM602 1383l82 266h194l-194 -266h-82z" />
<glyph unicode="&#x40e;" horiz-adv-x="1243" d="M-57 1311v41h245q88 0 144.5 -60.5t101.5 -165.5l277 -614l368 840h123l-504 -1157q-92 -215 -325 -215h-103v61q106 0 190.5 35t117.5 119l20 51l-379 839q-31 74 -59.5 117t-79.5 74t-137 35zM444 1618l41 31q74 -92 225 -93q152 0 226 93l40 -31q-82 -184 -266 -184 t-266 184z" />
<glyph unicode="&#x40f;" horiz-adv-x="1376" d="M33 1311v41h184q76 0 114 -19.5t54 -71t16 -155.5v-1024h615v1270h184v-1352h-409l-31 -358h-103l-30 358h-410v1106q0 104 -28.5 154.5t-114.5 50.5h-41z" />
<glyph unicode="&#x410;" horiz-adv-x="1300" d="M45 0l573 1352h62l450 -1096q51 -119 96.5 -163t129.5 -52v-41q-37 -10 -82 -10q-98 0 -194.5 54t-153.5 212l-52 133h-573l-164 -389h-92zM332 471h502l-246 594z" />
<glyph unicode="&#x411;" horiz-adv-x="1245" d="M33 1311v41h862q174 0 174 -164v-154h-41q0 236 -256 236h-371v-492h226q225 0 383.5 -84t158.5 -305t-158.5 -305t-383.5 -84h-410v1106q0 104 -28.5 154.5t-114.5 50.5h-41zM401 100q98 -29 195 -28q174 0 271.5 79.5t97.5 237.5t-97.5 238t-271.5 80q-96 0 -195 -29 v-578z" />
<glyph unicode="&#x412;" horiz-adv-x="1273" d="M33 1311v41h532q223 0 388 -74t165 -285q0 -96 -65.5 -174t-200.5 -123q188 -31 263 -111.5t75 -215.5q0 -207 -163 -288t-400 -81h-410v1106q0 104 -28.5 154.5t-114.5 50.5h-41zM401 100q98 -29 195 -28q186 0 287.5 73.5t101.5 212.5t-99.5 213t-289.5 74h-195v-545z M401 727h195q84 0 158.5 32t122 94t47.5 151q0 92 -55.5 154.5t-140.5 92t-173 29.5q-72 0 -154 -20v-533z" />
<glyph unicode="&#x413;" horiz-adv-x="1099" d="M33 1311v41h850q174 0 174 -164v-154h-41q0 236 -256 236h-359v-1270h-184v1106q0 104 -28.5 154.5t-114.5 50.5h-41z" />
<glyph unicode="&#x414;" horiz-adv-x="1406" d="M6 10q0 31 20.5 51.5t51.5 20.5h82q94 205 134 458t40 566q0 104 -29 154.5t-115 50.5h-30v41h1024v-1270h112q31 0 51.5 -20.5t20.5 -51.5v-379h-92q-25 205 -84 287t-172 82h-666q-113 0 -172 -82t-84 -287h-92v379zM303 82h696v1188h-532q0 -424 -38 -702.5 t-126 -485.5z" />
<glyph unicode="&#x415;" horiz-adv-x="1208" d="M33 1311v41h872q174 0 174 -164v-154h-41q0 236 -256 236h-381v-533h553v-82h-553v-573h359q141 0 221 51t127 174l41 -10l-72 -195q-37 -102 -153 -102h-707v1106q0 104 -28.5 154.5t-114.5 50.5h-41z" />
<glyph unicode="&#x416;" horiz-adv-x="1943" d="M-18 0v39q70 8 162 71.5t165 155.5l389 492l-317 399q-63 82 -131 112.5t-146 30.5v52h103q96 0 170 -54.5t158 -160.5l348 -430v645h178v-645l348 430q78 100 154.5 157.5t173.5 57.5h102v-52q-78 0 -145.5 -30.5t-130.5 -112.5l-318 -399l389 -492q74 -92 166 -155.5 t162 -71.5v-39q-61 -20 -133 -20q-92 0 -201.5 52t-218.5 193l-348 451v-676h-178v676l-348 -451q-109 -141 -218.5 -193t-201.5 -52q-72 0 -133 20z" />
<glyph unicode="&#x417;" horiz-adv-x="1167" d="M61 215l41 31q154 -205 420 -205q164 0 261.5 79t97.5 218q0 150 -99.5 228.5t-289.5 78.5h-154v82h154q145 0 246.5 79t101.5 218q0 137 -91.5 212t-216.5 75q-147 0 -248.5 -87t-140.5 -241h-41q0 113 8.5 168t43.5 98q51 63 164.5 103.5t224.5 40.5q203 0 347 -80 t144 -299q0 -104 -71.5 -188.5t-214.5 -129.5q182 -35 259.5 -123t77.5 -225q0 -213 -159.5 -301t-372.5 -88q-164 0 -283.5 58.5t-208.5 197.5z" />
<glyph unicode="&#x418;" horiz-adv-x="1417" d="M33 1311v41h184q76 0 114 -19.5t54 -71t16 -155.5v-922l656 1168h184v-1352h-184v1167l-656 -1167h-184v1106q0 104 -28.5 154.5t-114.5 50.5h-41z" />
<glyph unicode="&#x419;" horiz-adv-x="1417" d="M33 1311v41h184q76 0 114 -19.5t54 -71t16 -155.5v-922l656 1168h184v-1352h-184v1167l-656 -1167h-184v1106q0 104 -28.5 154.5t-114.5 50.5h-41zM463 1638l41 31q74 -92 225 -93q152 0 226 93l40 -31q-82 -184 -266 -184t-266 184z" />
<glyph unicode="&#x41a;" horiz-adv-x="1386" d="M33 1311v41h184q76 0 114 -19.5t54 -71t16 -155.5v-399l430 430l41 43q57 59 96.5 93t92.5 56.5t119 22.5h102v-52q-86 0 -149.5 -29.5t-147.5 -113.5l-399 -399l471 -492q90 -92 182 -154.5t166 -72.5v-39q-61 -20 -133 -20q-96 0 -200.5 52t-240.5 193l-430 451v-676 h-184v1106q0 104 -28.5 154.5t-114.5 50.5h-41z" />
<glyph unicode="&#x41b;" horiz-adv-x="1351" d="M-12 -2v51q102 4 175 88t118 314.5t45 654.5q0 104 -29 154.5t-115 50.5h-20v41h1014v-1352h-185v1270h-512v-164q0 -442 -52 -691t-137 -342t-200 -93q-47 0 -102 18z" />
<glyph unicode="&#x41c;" horiz-adv-x="1751" d="M176 0v1352h195l491 -1065l481 1065h185v-1004q0 -190 48 -294.5t146 -104.5v-41q-147 0 -229 45t-116 140t-34 255v789l-512 -1137h-40l-533 1157v-1157h-82z" />
<glyph unicode="&#x41d;" horiz-adv-x="1419" d="M33 1311v41h184q76 0 114 -19.5t54 -71t16 -155.5v-369h615v615h184v-1106q0 -104 28.5 -154.5t114.5 -50.5h41v-41h-184q-76 0 -113.5 19.5t-54 70.5t-16.5 156v409h-615v-655h-184v1106q0 104 -28.5 154.5t-114.5 50.5h-41z" />
<glyph unicode="&#x41e;" horiz-adv-x="1458" d="M94 676q0 201 78 364.5t222.5 258t334.5 94.5t334.5 -94.5t222.5 -258t78 -364.5t-78 -365t-222 -258t-335 -94q-190 0 -334.5 94t-222.5 258t-78 365zM299 676q0 -195 51 -337t148.5 -220t230.5 -78t230.5 78t148.5 220t51 337t-51 337t-148.5 220t-230.5 78t-230.5 -78 t-148.5 -220.5t-51 -336.5z" />
<glyph unicode="&#x41f;" horiz-adv-x="1376" d="M33 1311v41h1167v-1352h-184v1270h-615v-1270h-184v1106q0 104 -28.5 154.5t-114.5 50.5h-41z" />
<glyph unicode="&#x420;" horiz-adv-x="1130" d="M33 1311v41h532q197 0 354.5 -84t157.5 -326q0 -160 -82 -246t-183 -114.5t-185 -28.5h-226v-553h-184v1106q0 104 -28.5 154.5t-114.5 50.5h-41zM401 625h154q66 0 139.5 33.5t125.5 107.5t52 186q0 113 -52 186.5t-125.5 107.5t-139.5 34q-72 0 -154 -20v-635z" />
<glyph unicode="&#x421;" horiz-adv-x="1361" d="M90 655q0 201 85 371t231.5 268.5t318.5 98.5q164 0 288 -46.5t183 -117.5q35 -43 43 -114t8 -193h-41q-39 199 -143.5 294t-276.5 95q-221 0 -356 -156t-135 -500q0 -162 52 -301t163 -226t276 -87q150 0 261.5 71.5t199.5 215.5l41 -31q-94 -184 -232 -261t-331 -77 q-190 0 -334.5 92t-222.5 251t-78 353z" />
<glyph unicode="&#x422;" horiz-adv-x="1193" d="M43 1034v154q0 164 174 164h952v-82h-460v-1270h-185v1270h-184q-256 0 -256 -236h-41z" />
<glyph unicode="&#x423;" horiz-adv-x="1243" d="M-57 1311v41h245q88 0 144.5 -60.5t101.5 -165.5l277 -614l368 840h123l-504 -1157q-92 -215 -325 -215h-103v61q106 0 190.5 35t117.5 119l20 51l-379 839q-31 74 -59.5 117t-79.5 74t-137 35z" />
<glyph unicode="&#x424;" horiz-adv-x="1597" d="M72 645q0 268 159.5 421t475.5 153q0 86 -32 119.5t-112 33.5h-41v41h185q74 0 112.5 -16.5t55 -58.5t16.5 -119q315 0 475 -153t160 -421t-160 -420.5t-475 -152.5v-133h-184v133q-315 0 -475 152.5t-160 420.5zM276 645q0 -223 100.5 -357t330.5 -134v983 q-229 0 -330 -134.5t-101 -357.5zM891 154q229 0 329.5 134t100.5 357t-100.5 357.5t-329.5 134.5v-983z" />
<glyph unicode="&#x425;" horiz-adv-x="1366" d="M-18 1311v41h245q90 0 151.5 -58.5t135.5 -167.5l205 -307l409 533h103l-461 -604l328 -482q63 -94 136 -156.5t161 -68.5v-41h-215q-88 0 -156 62.5t-131 162.5l-246 369l-461 -594h-102l512 666l-287 419q-49 72 -86 114t-96 75t-145 37z" />
<glyph unicode="&#x426;" horiz-adv-x="1423" d="M33 1311v41h184q76 0 114 -19.5t54 -71t16 -155.5v-1024h615v1270h184v-1270h113q31 0 51 -20.5t20 -51.5v-379h-92q-24 205 -83.5 287t-172.5 82h-819v1106q0 104 -28.5 154.5t-114.5 50.5h-41z" />
<glyph unicode="&#x427;" horiz-adv-x="1310" d="M8 1311v41h185q76 0 113.5 -19.5t54 -71t16.5 -155.5v-184q0 -131 33.5 -203t99 -98.5t174.5 -26.5q70 0 143.5 10t122.5 31v717h185v-1352h-185v553q-47 -23 -123.5 -32t-152.5 -9q-156 0 -264.5 33t-173 128t-64.5 269v164q0 104 -28.5 154.5t-114.5 50.5h-21z" />
<glyph unicode="&#x428;" horiz-adv-x="1908" d="M33 1311v41h184q76 0 114 -19.5t54 -71t16 -155.5v-1024h482v1270h184v-1270h481v1270h185v-1352h-1516v1106q0 104 -28.5 154.5t-114.5 50.5h-41z" />
<glyph unicode="&#x429;" horiz-adv-x="1955" d="M33 1311v41h184q76 0 114 -19.5t54 -71t16 -155.5v-1024h482v1270h184v-1270h481v1270h185v-1270h112q31 0 51.5 -20.5t20.5 -51.5v-379h-92q-25 205 -84.5 287t-171.5 82h-1352v1106q0 104 -28.5 154.5t-114.5 50.5h-41z" />
<glyph unicode="&#x42a;" horiz-adv-x="1441" d="M59 963v317q0 31 20.5 51.5t51.5 20.5h492v-574h225q225 0 384 -84t159 -305t-159 -305t-384 -84h-410v1270h-61q-90 0 -143.5 -28t-80 -94.5t-32.5 -184.5h-62zM623 100q98 -29 194 -28q174 0 271.5 79.5t97.5 237.5t-97.5 238t-271.5 80q-96 0 -194 -29v-578z" />
<glyph unicode="&#x42b;" horiz-adv-x="1703" d="M33 1311v41h184q76 0 114 -19.5t54 -71t16 -155.5v-328h226q203 0 357.5 -85t154.5 -304t-155 -304t-357 -85h-410v1106q0 104 -28.5 154.5t-114.5 50.5h-41zM401 100q98 -29 195 -28q152 0 245 80.5t93 236.5t-93 237t-245 81q-96 0 -195 -29v-578zM1303 246v1106h184 v-1106q0 -104 28.5 -154.5t114.5 -50.5h41v-41h-184q-76 0 -114 19.5t-54 70.5t-16 156z" />
<glyph unicode="&#x42c;" horiz-adv-x="1220" d="M33 1311v41h184q76 0 114 -19.5t54 -71t16 -155.5v-328h226q225 0 383.5 -84t158.5 -305t-158.5 -305t-383.5 -84h-410v1106q0 104 -28.5 154.5t-114.5 50.5h-41zM401 100q98 -29 195 -28q174 0 271.5 79.5t97.5 237.5t-97.5 238t-271.5 80q-96 0 -195 -29v-578z" />
<glyph unicode="&#x42d;" horiz-adv-x="1361" d="M72 297l41 31q88 -143 199.5 -215t260.5 -72q160 0 269.5 83t163 218t59.5 293h-678v82h678q-16 311 -149.5 452.5t-342.5 141.5q-172 0 -276 -95.5t-143 -293.5h-41q0 123 8 193.5t43 113.5q59 72 183 118t288 46q172 0 318.5 -98.5t231.5 -268.5t85 -371 q0 -195 -78 -353.5t-222.5 -250.5t-334.5 -92q-193 0 -331 77t-232 261z" />
<glyph unicode="&#x42e;" horiz-adv-x="1787" d="M33 1311v41h184q76 0 114 -19.5t54 -71t16 -155.5v-369h146q12 197 89 345.5t202 229.5t280 81q162 0 293 -89.5t206 -253t75 -374.5t-75 -375t-206 -253t-293 -89q-160 0 -289 87t-204.5 246t-79.5 363h-144v-655h-184v1106q0 104 -28.5 154.5t-114.5 50.5h-41zM750 676 q0 -199 48 -342.5t132 -218t188 -74.5q105 0 189 74.5t132 218t48 342.5t-48 342t-132 218t-189 75q-104 0 -188 -75t-132 -218.5t-48 -341.5z" />
<glyph unicode="&#x42f;" horiz-adv-x="1245" d="M29 2v39q74 8 127 49t98 115l215 368q-125 31 -211 117t-86 252q0 242 157.5 326t354.5 84h512v-41h-20q-86 0 -115 -50.5t-29 -154.5v-1106h-184v553h-199l-215 -389q-57 -104 -122.5 -144t-159.5 -40q-55 -1 -123 22zM377 952q0 -113 52 -186.5t126 -107t139 -33.5 q72 0 154 20v615q-82 20 -154 20q-66 0 -139.5 -34t-125.5 -107.5t-52 -186.5z" />
<glyph unicode="&#x430;" horiz-adv-x="985" d="M80 266q0 156 144.5 221.5t377.5 65.5h62q0 201 -55.5 274.5t-159.5 73.5q-92 0 -147.5 -39t-78.5 -135h-92q0 70 8 110t43 74q37 37 122 54.5t185 17.5q166 0 262.5 -89t96.5 -341v-553h-103l-71 92h-10q-37 -47 -109 -79.5t-178 -32.5q-66 0 -133.5 27.5t-115.5 91 t-48 167.5zM274 266q0 -94 56.5 -144t138.5 -50q68 0 113 32.5t82 90.5v276h-62q-152 0 -240 -56.5t-88 -148.5z" />
<glyph unicode="&#x431;" horiz-adv-x="1081" d="M123 471v82q0 250 28.5 387t92 199.5t176.5 89.5l307 71q78 18 112.5 38t41.5 55h41v-133q0 -76 -62 -93l-358 -82q-94 -25 -151.5 -69.5t-91.5 -140t-44 -261.5h10q39 152 126 219.5t243 67.5q106 0 194.5 -50t141.5 -154.5t53 -256.5q0 -229 -117.5 -344.5 t-312.5 -115.5q-197 0 -313.5 120.5t-116.5 370.5zM317 440q0 -207 66 -293t170 -86t169.5 86t65.5 293q0 201 -66.5 290t-168.5 89t-169 -89t-67 -290z" />
<glyph unicode="&#x432;" horiz-adv-x="1026" d="M4 922v41h502q172 0 280.5 -57.5t108.5 -188.5q0 -88 -49 -140.5t-156 -74.5q119 -23 182.5 -83.5t63.5 -152.5q0 -145 -113.5 -205.5t-316.5 -60.5h-338v717q0 104 -28.5 154.5t-114.5 50.5h-21zM352 92q25 -8 64 -14t69 -6q256 -1 256 194t-276 195h-113v-369zM352 543 h113q111 0 173 45t62 129t-59 129t-156 45q-31 0 -69.5 -6t-63.5 -15v-327z" />
<glyph unicode="&#x433;" horiz-adv-x="890" d="M4 922v41h676q154 0 154 -164v-123h-41q0 96 -59.5 150.5t-155.5 54.5h-226v-881h-184v717q0 104 -28.5 154.5t-114.5 50.5h-21z" />
<glyph unicode="&#x434;" horiz-adv-x="1167" d="M33 10q0 31 20.5 51.5t50.5 20.5h62q63 141 93 310t30 325q0 104 -29 154.5t-115 50.5v41h820v-881h82q31 0 51 -20.5t20 -51.5v-327h-82q-16 172 -65 244.5t-150 72.5h-491q-100 0 -149.5 -72.5t-65.5 -244.5h-82v327zM309 82h471v799h-358q0 -268 -26.5 -458 t-86.5 -341z" />
<glyph unicode="&#x435;" horiz-adv-x="999" d="M92 481q0 139 49 254t142.5 181.5t218.5 66.5q207 0 308 -115.5t101 -335.5l-4 -81h-620q0 -172 73.5 -281t202.5 -109q96 0 163 41t124 123l41 -30q-68 -113 -158 -164t-211 -51q-139 0 -235.5 66.5t-145.5 180t-49 254.5zM287 532h430q0 180 -53.5 274.5t-161.5 94.5 q-61 0 -110.5 -48t-77 -132t-27.5 -189z" />
<glyph unicode="&#x436;" horiz-adv-x="1404" d="M16 0v39q70 10 126.5 50t109.5 116l215 297l-195 317q-29 45 -80 68.5t-114 23.5v52h51q184 0 266 -134l215 -358v492h185v-492l215 358q82 133 266 134h51v-52q-63 0 -114.5 -23.5t-79.5 -68.5l-195 -317l215 -297q53 -76 109.5 -116t126.5 -50v-39q-45 -20 -103 -20 q-160 0 -276 163l-215 297v-440h-185v440l-215 -297q-117 -164 -276 -163q-58 0 -103 20z" />
<glyph unicode="&#x437;" horiz-adv-x="931" d="M74 143l41 31q51 -51 113.5 -82t162.5 -31q256 0 256 195t-287 195h-92v81h92q125 0 190.5 46.5t65.5 138.5q0 88 -57 136t-147 48q-113 0 -186.5 -58.5t-80.5 -156.5h-41q0 100 8.5 145.5t43.5 79.5q72 72 286 72q158 0 263.5 -62.5t105.5 -203.5q0 -88 -54.5 -144.5 t-150.5 -80.5q113 -23 174.5 -84.5t61.5 -151.5q0 -276 -410 -276q-129 0 -214 43t-144 120z" />
<glyph unicode="&#x438;" horiz-adv-x="1122" d="M2 922v41h174q76 0 114 -19.5t54 -71t16 -155.5v-533l431 779h184v-963h-184v778l-431 -778h-184v717q0 104 -28.5 154.5t-114.5 50.5h-31z" />
<glyph unicode="&#x439;" horiz-adv-x="1122" d="M2 922v41h174q76 0 114 -19.5t54 -71t16 -155.5v-533l431 779h184v-963h-184v778l-431 -778h-184v717q0 104 -28.5 154.5t-114.5 50.5h-31zM309 1231l41 31q41 -41 92 -61.5t133 -20.5t133.5 20.5t92.5 61.5l40 -31q-90 -164 -266 -164t-266 164z" />
<glyph unicode="&#x43a;" horiz-adv-x="1017" d="M-2 922v41h184q76 0 114 -19.5t54.5 -71t16.5 -155.5v-246l256 358q47 66 109.5 100t156.5 34h51v-52q-119 0 -184 -92l-226 -317l236 -297q57 -74 113.5 -115t121.5 -51v-39q-45 -20 -102 -20q-166 -1 -297 163l-235 297v-440h-185v717q0 104 -28.5 154.5t-114.5 50.5 h-41z" />
<glyph unicode="&#x43b;" horiz-adv-x="1118" d="M18 -2v51q119 0 193 141.5t74 526.5q0 104 -30 154.5t-116 50.5v41h832v-963h-185v881h-360v-164q0 -420 -85 -578.5t-222 -158.5q-17 0 -50.5 6t-50.5 12z" />
<glyph unicode="&#x43c;" horiz-adv-x="1329" d="M147 0v963h195l307 -676l307 676h185v-656q0 -121 44 -214t109 -93v-41q-182 0 -260 89t-78 259v441l-338 -748h-40l-349 768v-768h-82z" />
<glyph unicode="&#x43d;" horiz-adv-x="1132" d="M2 922v41h174q76 0 114 -19.5t54 -71t16 -155.5v-195h410v441h184v-717q0 -104 29 -154.5t115 -50.5h30v-41h-174q-76 0 -113.5 19.5t-54 70.5t-16.5 156v194h-410v-440h-184v717q0 104 -28.5 154.5t-114.5 50.5h-31z" />
<glyph unicode="&#x43e;" d="M92 481q0 139 53.5 254t155.5 181.5t242 66.5q139 0 241.5 -66.5t155.5 -181t53 -254.5q0 -139 -53 -253.5t-155.5 -181t-241.5 -66.5q-140 0 -242 66.5t-155.5 181t-53.5 253.5zM287 481q0 -117 31.5 -213t90 -151.5t134.5 -55.5q75 0 133.5 55.5t90.5 152t32 212.5 q0 117 -32 213.5t-90.5 151.5t-133.5 55q-76 0 -134.5 -55t-90 -151.5t-31.5 -213.5z" />
<glyph unicode="&#x43f;" horiz-adv-x="1093" d="M4 922v41h942v-963h-184v881h-410v-881h-184v717q0 104 -28.5 154.5t-114.5 50.5h-21z" />
<glyph unicode="&#x440;" horiz-adv-x="1101" d="M-6 922v41h184q78 0 118 -21.5t56 -71.5q113 113 287 113q176 0 272.5 -142.5t96.5 -359.5q0 -219 -99.5 -360t-290.5 -141q-78 0 -137 16t-119 45v-430h-184v1106q0 104 -28.5 154.5t-114.5 50.5h-41zM362 123q61 -29 106.5 -45.5t88.5 -16.5q131 0 193.5 115t62.5 305 q0 188 -59.5 304t-175.5 116q-137 0 -216 -123v-655z" />
<glyph unicode="&#x441;" horiz-adv-x="989" d="M92 481q0 141 50.5 255t151.5 180.5t249 66.5q225 0 297 -72q35 -35 43 -85t8 -181h-41q-8 127 -80 191.5t-186 64.5q-147 0 -222 -116.5t-75 -303.5q0 -186 74.5 -303t222.5 -117q104 0 171.5 40t125.5 124l41 -30q-68 -115 -160 -165t-219 -50q-148 0 -249 66.5 t-151.5 180t-50.5 254.5z" />
<glyph unicode="&#x442;" horiz-adv-x="970" d="M59 676v123q0 164 154 164h727v-82h-338v-881h-184v881h-103q-96 0 -155.5 -54.5t-59.5 -150.5h-41z" />
<glyph unicode="&#x443;" horiz-adv-x="1052" d="M-20 942v41h174q178 0 245 -164l234 -567l258 711h102l-399 -1096q-59 -162 -131 -219.5t-187 -57.5h-61v62q100 0 164.5 46t112.5 169l40 113l-327 798q-57 147 -225 164z" />
<glyph unicode="&#x444;" horiz-adv-x="1355" d="M94 481q0 217 127 355.5t365 146.5v123q0 104 -29 154.5t-115 50.5h-30v41h174q76 0 113.5 -19.5t54 -71t16.5 -155.5v-123q238 -8 365 -146.5t127 -355.5t-127 -355t-365 -146v-369h-184v369q-238 8 -365 146t-127 355zM289 481q0 -190 73.5 -301.5t225.5 -128.5v860 q-152 -16 -225.5 -127.5t-73.5 -302.5zM768 51q152 17 225.5 128.5t73.5 301.5t-73.5 302t-225.5 128v-860z" />
<glyph unicode="&#x445;" horiz-adv-x="999" d="M16 922v41h174q68 0 127.5 -43t104.5 -121l127 -215l266 379h103l-328 -461l178 -297q84 -147 221 -164v-41h-184q-68 0 -127.5 43t-104.5 121l-127 215l-266 -379h-102l328 461l-179 297q-86 150 -211 164z" />
<glyph unicode="&#x446;" horiz-adv-x="1157" d="M2 922v41h174q76 0 114 -19.5t54 -71t16 -155.5v-635h410v881h184v-881h82q31 0 51.5 -20.5t20.5 -51.5v-327h-82q-16 172 -65.5 244.5t-149.5 72.5h-635v717q0 104 -28.5 154.5t-114.5 50.5h-31z" />
<glyph unicode="&#x447;" horiz-adv-x="1091" d="M23 922v41h174q76 0 113.5 -19.5t54 -71t16.5 -155.5v-82q0 -100 53 -147.5t131 -47.5q102 0 195 37v486h184v-963h-184v395q-92 -37 -205 -37q-158 0 -263.5 64.5t-105.5 232.5v62q0 104 -28.5 154.5t-114.5 50.5h-20z" />
<glyph unicode="&#x448;" horiz-adv-x="1511" d="M2 922v41h174q76 0 114 -19.5t54 -71t16 -155.5v-635h318v881h184v-881h318v881h184v-963h-1188v717q0 104 -28.5 154.5t-114.5 50.5h-31z" />
<glyph unicode="&#x449;" horiz-adv-x="1566" d="M2 922v41h174q76 0 114 -19.5t54 -71t16 -155.5v-635h318v881h184v-881h318v881h184v-881h82q31 0 51.5 -20.5t20.5 -51.5v-327h-82q-17 172 -66 244.5t-149 72.5h-1045v717q0 104 -28.5 154.5t-114.5 50.5h-31z" />
<glyph unicode="&#x44a;" horiz-adv-x="1196" d="M72 614v277q0 31 20.5 51.5t50.5 20.5h420v-390h154q195 0 307.5 -65.5t112.5 -220.5q0 -156 -113 -221.5t-307 -65.5h-338v881h-21q-111 0 -169 -64.5t-66 -202.5h-51zM563 92q25 -8 64 -14t69 -6q121 0 183.5 51t62.5 164t-62.5 164t-183.5 51q-31 0 -69.5 -6.5 t-63.5 -14.5v-389z" />
<glyph unicode="&#x44b;" horiz-adv-x="1409" d="M2 922v41h174q76 0 114 -19.5t54 -71t16 -155.5v-144h154q399 0 399 -286q0 -287 -399 -287h-338v717q0 104 -28.5 154.5t-114.5 50.5h-31zM360 92q25 -8 64 -14t70 -6q106 0 165.5 51t59.5 164t-59.5 164t-165.5 51q-31 0 -70 -6.5t-64 -14.5v-389zM1047 246v717h184 v-717q0 -104 28.5 -154.5t114.5 -50.5h31v-41h-174q-76 0 -114 19.5t-54 70.5t-16 156z" />
<glyph unicode="&#x44c;" horiz-adv-x="993" d="M2 922v41h174q76 0 114 -19.5t54 -71t16 -155.5v-144h154q195 0 307.5 -65.5t112.5 -220.5q0 -156 -112.5 -221.5t-307.5 -65.5h-338v717q0 104 -28.5 154.5t-114.5 50.5h-31zM360 92q25 -8 64 -14t70 -6q120 0 182.5 51t62.5 164t-62.5 164t-182.5 51q-31 0 -70 -6.5 t-64 -14.5v-389z" />
<glyph unicode="&#x44d;" horiz-adv-x="1001" d="M80 195l41 30q57 -84 124.5 -124t172.5 -40q137 0 213 101.5t84 267.5h-430v82h430q-8 172 -83 280.5t-214 108.5q-115 0 -186.5 -64.5t-79.5 -191.5h-41q0 131 8 181.5t43 84.5q72 72 297 72q147 0 248.5 -66.5t151.5 -180t50 -255.5q0 -141 -50 -254.5t-151.5 -180 t-248.5 -66.5q-127 0 -219.5 50t-159.5 165z" />
<glyph unicode="&#x44e;" horiz-adv-x="1415" d="M2 922v41h174q76 0 114 -19.5t54 -71t16 -155.5v-195h123q4 137 58.5 241.5t147.5 162t214 57.5q127 0 222.5 -63.5t146.5 -177t51 -261.5q0 -147 -51 -261t-146.5 -177t-222.5 -63q-121 0 -214 57t-147.5 161.5t-58.5 241.5h-123v-440h-184v717q0 104 -28.5 154.5 t-114.5 50.5h-31zM678 481q0 -203 61.5 -311.5t163.5 -108.5q103 0 164 109t61 311q0 203 -61 311.5t-164 108.5q-102 0 -163.5 -108.5t-61.5 -311.5z" />
<glyph unicode="&#x44f;" horiz-adv-x="1044" d="M35 0v41q63 6 106 49t88 115l123 215q-98 16 -166.5 87t-68.5 179q0 276 409 277h482v-41h-9q-80 -2 -107.5 -53.5t-27.5 -151.5v-717h-184v410h-160l-123 -246q-49 -96 -107.5 -140t-142.5 -44q-51 0 -112 20zM311 686q0 -205 236 -205q31 0 69.5 6.5t63.5 14.5v368 q-25 8 -63.5 14.5t-69.5 6.5q-236 0 -236 -205z" />
<glyph unicode="&#x451;" horiz-adv-x="999" d="M92 481q0 139 49 254t142.5 181.5t218.5 66.5q207 0 308 -115.5t101 -335.5l-4 -81h-620q0 -172 73.5 -281t202.5 -109q96 0 163 41t124 123l41 -30q-68 -113 -158 -164t-211 -51q-139 0 -235.5 66.5t-145.5 180t-49 254.5zM246 1188q0 39 26.5 65.5t65.5 26.5 t65.5 -26.5t26.5 -65.5t-26.5 -65.5t-65.5 -26.5t-65.5 26.5t-26.5 65.5zM287 532h430q0 180 -53.5 274.5t-161.5 94.5q-61 0 -110.5 -48t-77 -132t-27.5 -189zM594 1188q0 39 26.5 65.5t65.5 26.5t65.5 -26.5t26.5 -65.5t-26.5 -65.5t-65.5 -26.5t-65.5 26.5t-26.5 65.5z " />
<glyph unicode="&#x452;" d="M4 1024v82h143v123l103 123h82v-246h246v-82h-246v-246q43 43 111.5 73t154.5 30q154 0 251 -82t97 -287v-358q0 -160 -33.5 -255.5t-115.5 -140.5t-230 -45v41q98 0 146.5 104.5t48.5 295.5v358q0 143 -64.5 209.5t-160.5 66.5q-109 0 -205 -108v-680h-185v1024h-143z " />
<glyph unicode="&#x453;" horiz-adv-x="890" d="M4 922v41h676q154 0 154 -164v-123h-41q0 96 -59.5 150.5t-155.5 54.5h-226v-881h-184v717q0 104 -28.5 154.5t-114.5 50.5h-21zM373 1044l82 266h194l-194 -266h-82z" />
<glyph unicode="&#x454;" horiz-adv-x="1001" d="M92 481q0 141 50.5 255t151.5 180.5t249 66.5q225 0 297 -72q35 -35 43 -85t8 -181h-41q-8 127 -80 191.5t-186 64.5q-139 0 -214 -108.5t-83 -280.5h430v-82h-430q8 -166 83.5 -267.5t213.5 -101.5q104 0 171.5 40t125.5 124l41 -30q-68 -115 -160 -165t-219 -50 q-148 0 -249 66.5t-151.5 180t-50.5 254.5z" />
<glyph unicode="&#x455;" horiz-adv-x="913" d="M100 276h41q18 -102 89 -158.5t198 -56.5q113 0 169 39t56 105q0 59 -44 102t-140 82l-123 51q-123 49 -184.5 115t-61.5 162q0 125 94.5 195.5t243.5 70.5q225 0 307 -82q35 -35 43.5 -78t8.5 -137h-41q-16 102 -86 158.5t-191 56.5q-96 0 -150.5 -40t-54.5 -103 q0 -106 164 -174l123 -52q139 -57 202.5 -121.5t63.5 -164.5q0 -125 -100 -195.5t-258 -70.5q-235 -1 -317 81q-35 35 -43.5 79t-8.5 136z" />
<glyph unicode="&#x456;" horiz-adv-x="503" d="M-6 922v41h184q76 0 114 -19.5t54 -71t16 -155.5v-717h-184v717q0 104 -28.5 154.5t-114.5 50.5h-41zM141 1217q0 43 26 67.5t69 24.5q47 0 80.5 -39t33.5 -92q0 -43 -25.5 -68t-68.5 -25q-47 0 -81 39t-34 93z" />
<glyph unicode="&#x457;" horiz-adv-x="503" d="M-8 1237q0 43 25.5 67.5t68.5 24.5q47 0 81 -39t34 -92q0 -43 -25.5 -67.5t-69.5 -24.5q-47 0 -80.5 39t-33.5 92zM-6 922v41h184q76 0 114 -19.5t54 -71t16 -155.5v-717h-184v717q0 104 -28.5 154.5t-114.5 50.5h-41zM307 1237q0 43 25.5 67.5t68.5 24.5q47 0 81 -39 t34 -92q0 -43 -25.5 -67.5t-68.5 -24.5q-47 0 -81 39t-34 92z" />
<glyph unicode="&#x458;" horiz-adv-x="503" d="M-16 -348q98 0 146 104.5t48 294.5v666q0 104 -28.5 154.5t-114.5 50.5h-41v41h184q76 0 114 -19.5t54 -71t16 -155.5v-666q0 -160 -33.5 -255t-115.5 -140t-229 -45v41zM141 1217q0 43 26 67.5t69 24.5q47 0 80.5 -39t33.5 -92q0 -43 -25.5 -68t-68.5 -25q-47 0 -81 39 t-34 93z" />
<glyph unicode="&#x459;" horiz-adv-x="1581" d="M18 -2v51q119 0 193 141.5t74 526.5q0 104 -30 154.5t-116 50.5v41h809v-390h154q195 0 307.5 -65.5t112.5 -220.5q0 -156 -113 -221.5t-307 -65.5h-338v881h-338v-164q0 -420 -85 -578.5t-222 -158.5q-17 0 -50.5 6t-50.5 12zM948 92q25 -8 64 -14t69 -6q121 0 183.5 51 t62.5 164t-62.5 164t-183.5 51q-31 0 -69.5 -6.5t-63.5 -14.5v-389z" />
<glyph unicode="&#x45a;" horiz-adv-x="1562" d="M2 922v41h174q76 0 114 -19.5t54 -71t16 -155.5v-185h390v431h184v-431h153q420 0 420 -266q0 -145 -112.5 -205.5t-307.5 -60.5h-337v451h-390v-451h-184v717q0 104 -28.5 154.5t-114.5 50.5h-31zM934 92q25 -8 63.5 -14t69.5 -6q119 0 182.5 48t63.5 146t-63.5 146.5 t-182.5 48.5q-31 0 -70 -6t-63 -15v-348z" />
<glyph unicode="&#x45b;" d="M4 1024v82h143v123l103 123h82v-246h246v-82h-246v-246q43 43 111.5 73t154.5 30q154 0 251 -82t97 -287v-512h-184v512q0 143 -64.5 209.5t-160.5 66.5q-109 0 -205 -108v-680h-185v1024h-143z" />
<glyph unicode="&#x45c;" horiz-adv-x="1017" d="M-2 922v41h184q76 0 114 -19.5t54.5 -71t16.5 -155.5v-246l256 358q47 66 109.5 100t156.5 34h51v-52q-119 0 -184 -92l-226 -317l236 -297q57 -74 113.5 -115t121.5 -51v-39q-45 -20 -102 -20q-166 -1 -297 163l-235 297v-440h-185v717q0 104 -28.5 154.5t-114.5 50.5 h-41zM428 995l82 266h194l-194 -266h-82z" />
<glyph unicode="&#x45e;" horiz-adv-x="1052" d="M-20 942v41h174q178 0 245 -164l234 -567l258 711h102l-399 -1096q-59 -162 -131 -219.5t-187 -57.5h-61v62q100 0 164.5 46t112.5 169l40 113l-327 798q-57 147 -225 164zM348 1211l41 31q41 -41 92 -61.5t133 -20.5t133.5 20.5t92.5 61.5l40 -31q-90 -164 -266 -164 t-266 164z" />
<glyph unicode="&#x45f;" horiz-adv-x="1101" d="M2 922v41h174q76 0 114 -19.5t54 -71t16 -155.5v-635h410v881h184v-963h-317l-31 -307h-82l-30 307h-318v717q0 104 -28.5 154.5t-114.5 50.5h-31z" />
<glyph unicode="&#x490;" horiz-adv-x="1095" d="M33 1311v41h727q256 0 256 235h41v-225q0 -39 -26.5 -65.5t-65.5 -26.5h-564v-1270h-184v1106q0 104 -28.5 154.5t-114.5 50.5h-41z" />
<glyph unicode="&#x491;" horiz-adv-x="884" d="M4 922v41h574q96 0 155.5 54t59.5 150h41v-204q0 -82 -82 -82h-400v-881h-184v717q0 104 -28.5 154.5t-114.5 50.5h-21z" />
<glyph unicode="&#x2000;" horiz-adv-x="850" />
<glyph unicode="&#x2001;" horiz-adv-x="1700" />
<glyph unicode="&#x2002;" horiz-adv-x="850" />
<glyph unicode="&#x2003;" horiz-adv-x="1700" />
<glyph unicode="&#x2004;" horiz-adv-x="566" />
<glyph unicode="&#x2005;" horiz-adv-x="425" />
<glyph unicode="&#x2006;" horiz-adv-x="283" />
<glyph unicode="&#x2007;" horiz-adv-x="283" />
<glyph unicode="&#x2008;" horiz-adv-x="212" />
<glyph unicode="&#x2009;" horiz-adv-x="340" />
<glyph unicode="&#x200a;" horiz-adv-x="94" />
<glyph unicode="&#x2010;" horiz-adv-x="792" d="M135 471v143h522v-143h-522z" />
<glyph unicode="&#x2011;" horiz-adv-x="792" d="M135 471v143h522v-143h-522z" />
<glyph unicode="&#x2012;" horiz-adv-x="792" d="M135 471v143h522v-143h-522z" />
<glyph unicode="&#x2013;" horiz-adv-x="1249" d="M143 471v123h963v-123h-963z" />
<glyph unicode="&#x2014;" horiz-adv-x="1785" d="M135 471v123h1516v-123h-1516z" />
<glyph unicode="&#x2018;" horiz-adv-x="462" d="M104 1014q0 252 226 379l20 -31q-82 -55 -123 -121.5t-41 -155.5l62 21q47 0 79.5 -33t32.5 -80q0 -53 -34.5 -88t-87.5 -35q-62 0 -98 38t-36 106z" />
<glyph unicode="&#x2019;" horiz-adv-x="466" d="M117 1270q0 53 34.5 88t88.5 35q61 0 97 -38t36 -106q0 -252 -226 -379l-20 31q82 55 123 122t41 155l-62 -21q-47 0 -79.5 33t-32.5 80z" />
<glyph unicode="&#x201a;" horiz-adv-x="485" d="M115 82q0 53 34.5 88t88.5 35q61 0 97 -38t36 -106q0 -252 -226 -378l-20 30q82 55 123 122t41 155l-62 -21q-47 0 -79.5 33t-32.5 80z" />
<glyph unicode="&#x201c;" horiz-adv-x="831" d="M104 1014q0 252 226 379l20 -31q-82 -55 -123 -121.5t-41 -155.5l62 21q47 0 79.5 -33t32.5 -80q0 -53 -34.5 -88t-87.5 -35q-62 0 -98 38t-36 106zM473 1014q0 252 225 379l21 -31q-82 -55 -123 -121.5t-41 -155.5l61 21q47 0 80 -33t33 -80q0 -53 -35 -88t-88 -35 q-61 0 -97 38t-36 106z" />
<glyph unicode="&#x201d;" horiz-adv-x="835" d="M117 1270q0 53 34.5 88t88.5 35q61 0 97 -38t36 -106q0 -252 -226 -379l-20 31q82 55 123 122t41 155l-62 -21q-47 0 -79.5 33t-32.5 80zM485 1270q0 53 35 88t88 35q61 0 97 -38t36 -106q0 -252 -225 -379l-20 31q82 55 122.5 122t40.5 155l-61 -21q-47 0 -80 33t-33 80 z" />
<glyph unicode="&#x201e;" horiz-adv-x="854" d="M115 82q0 53 34.5 88t88.5 35q61 0 97 -38t36 -106q0 -252 -226 -378l-20 30q82 55 123 122t41 155l-62 -21q-47 0 -79.5 33t-32.5 80zM483 82q0 53 35 88t88 35q61 0 97 -38t36 -106q0 -252 -225 -378l-20 30q82 55 122.5 122t40.5 155l-61 -21q-47 0 -80 33t-33 80z " />
<glyph unicode="&#x2022;" horiz-adv-x="696" d="M102 676q0 109 69 177.5t177 68.5q109 0 177.5 -69t68.5 -177q0 -109 -68.5 -177.5t-177.5 -68.5q-108 0 -177 68.5t-69 177.5z" />
<glyph unicode="&#x2026;" horiz-adv-x="1310" d="M115 84q0 45 32.5 78t77.5 33q47 0 79 -33t32 -78q0 -47 -33 -80t-78 -33t-77.5 33t-32.5 80zM545 84q0 45 32.5 78t77.5 33q47 0 79 -33t32 -78q0 -47 -33 -80t-78 -33t-77.5 33t-32.5 80zM975 84q0 45 32.5 78t77.5 33q47 0 79 -33t32 -78q0 -47 -33 -80t-78 -33 t-77.5 33t-32.5 80z" />
<glyph unicode="&#x202f;" horiz-adv-x="340" />
<glyph unicode="&#x2039;" horiz-adv-x="618" d="M70 461l358 399h82l-225 -399l225 -400h-82z" />
<glyph unicode="&#x203a;" horiz-adv-x="618" d="M109 61l225 400l-225 399h81l359 -399l-359 -400h-81z" />
<glyph unicode="&#x205f;" horiz-adv-x="425" />
<glyph unicode="&#x20ac;" horiz-adv-x="1490" d="M57 522l21 82h123v123h-113l21 82h106q29 166 119 299t221 209t281 76q164 0 287.5 -46.5t183.5 -117.5q35 -43 43 -114t8 -193h-41q-39 199 -143.5 294t-276.5 95q-195 0 -324 -119t-159 -383h411l-20 -82h-399v-123h389l-21 -82h-360q33 -213 151.5 -347t331.5 -134 q150 0 261.5 71.5t199.5 215.5l41 -31q-94 -184 -232.5 -261t-330.5 -77q-168 0 -301.5 72.5t-216 199.5t-107.5 291h-154z" />
<glyph unicode="&#x2122;" horiz-adv-x="1812" d="M109 1137v92q0 123 114 123h559v-62h-268v-661h-137v661h-78q-72 0 -116 -40t-44 -113h-30zM852 629v723h145l230 -508l229 508h137v-492q0 -92 34 -161.5t89 -69.5v-31q-141 0 -200.5 66.5t-59.5 195.5v332l-252 -563h-30l-261 577v-577h-61z" />
<glyph unicode="&#x25fc;" horiz-adv-x="962" d="M0 0v963h963v-963h-963z" />
</font>
</defs>
</svg>
